# xmcd CD database file
#
# Track frame offsets:
#	150
#	18818
#	34735
#	61328
#	79443
#	94150
#	112515
#	131360
#	150665
#	168233
#	186415
#	210198
#	224408
#	243783
#
# Disc length: 3509 seconds
#
# Revision: 7
# Processed by: cddbd v1.5.1PL2 Copyright (c) Steve Scherf et al.
# Submitted via: CD2WAV32(JP) R3.22
#
DISCID=aa0db30e
DTITLE=The Flaming Lips - The Soft Bulletin
DYEAR=1999
DGENRE=Rock
TTITLE0=Race For The Prize
TTITLE1=A Spoonful Weighs A Ton
TTITLE2=The Spark That Bled
TTITLE3=The Spiderbite Song
TTITLE4=Buggin'
TTITLE5=What Is The Light?
TTITLE6=The Observer
TTITLE7=Waitin' For A Superman
TTITLE8=Suddenly Everything Has Changed
TTITLE9=The Gash
TTITLE10=Feeling Yourself Disintegrate
TTITLE11=Sleeping On The Roof
TTITLE12=Race For The Prize (2)
TTITLE13=Waitin' For A Superman (Mokran Mix)
EXTD=
EXTT0=
EXTT1=
EXTT2=
EXTT3=
EXTT4=
EXTT5=
EXTT6=
EXTT7=
EXTT8=
EXTT9=
EXTT10=
EXTT11=
EXTT12=
EXTT13=
PLAYORDER=
